<svg width="619" height="379" viewBox="0 0 619 379" fill="none" xmlns="http://www.w3.org/2000/svg">
<g clip-path="url(#clip0_19_67)">
<path d="M33.8637 21V19.4961L35.4164 19.2031V8.58789L33.8637 8.29492V6.78125H39.4301V8.29492L37.8773 8.58789V13.0215H44.098V8.58789L42.5453 8.29492V6.78125H44.098H46.5492H48.102V8.29492L46.5492 8.58789V19.2031L48.102 19.4961V21H42.5453V19.4961L44.098 19.2031V14.9355H37.8773V19.2031L39.4301 19.4961V21H33.8637ZM53.3699 21V19.4961L54.9227 19.2031V8.66602H52.0613L51.8465 10.4824H50.0008V6.78125H62.3152V10.4824H60.4598L60.2449 8.66602H57.3836V19.2031L58.9363 19.4961V21H53.3699ZM64.2824 21V19.4961L65.8254 19.2031V8.58789L64.2824 8.29492V6.78125H65.8254H69.3508L73.5207 17.0645H73.5793L77.6223 6.78125H82.7492V8.29492L81.1965 8.58789V19.2031L82.7492 19.4961V21H77.1926V19.4961L78.8234 19.2031V15.8926L78.843 9.67188L78.7941 9.66211L74.3898 20.6777H72.6027L68.0715 9.7207L68.0227 9.73047L68.1496 15.7266V19.2031L69.8391 19.4961V21H64.2824ZM84.6676 21V19.4961L86.2203 19.2031V8.58789L84.6676 8.29492V6.78125H86.2203H88.6812H90.3512V8.29492L88.6812 8.58789V19.1152H93.1246L93.2906 16.9668H95.1754V21H84.6676Z" fill="white"/>
<path d="M42.277 98.2051C40.8772 98.2051 39.6793 97.9089 38.6832 97.3164C37.6936 96.7174 36.9352 95.8841 36.4078 94.8164C35.887 93.7422 35.6266 92.4954 35.6266 91.0762V90.7148C35.6266 89.3281 35.887 88.1009 36.4078 87.0332C36.9286 85.959 37.6741 85.1159 38.6441 84.5039C39.6142 83.8854 40.773 83.5762 42.1207 83.5762C43.0647 83.5762 43.9404 83.7161 44.7477 83.9961C45.5549 84.276 46.2581 84.6699 46.857 85.1777V88.459H44.982L44.7281 86.2617C44.5133 86.1055 44.2757 85.972 44.0152 85.8613C43.7548 85.7507 43.4684 85.666 43.1559 85.6074C42.8499 85.5488 42.5146 85.5195 42.15 85.5195C41.2971 85.5195 40.5647 85.7344 39.9527 86.1641C39.3473 86.5938 38.885 87.196 38.566 87.9707C38.247 88.7454 38.0875 89.6536 38.0875 90.6953V91.0762C38.0875 92.1569 38.2568 93.0879 38.5953 93.8691C38.9339 94.6439 39.4189 95.2396 40.0504 95.6562C40.6884 96.0729 41.4501 96.2812 42.3355 96.2812C42.7652 96.2812 43.1884 96.2324 43.6051 96.1348C44.0283 96.0306 44.3994 95.8971 44.7184 95.7344L44.982 93.7422H46.8375V97.0039C46.2906 97.362 45.6201 97.6517 44.8258 97.873C44.038 98.0944 43.1884 98.2051 42.277 98.2051ZM54.5371 98.2051C53.5671 98.2051 52.6654 98.0846 51.832 97.8438C50.9987 97.6029 50.1882 97.2025 49.4004 96.6426V93.3711H51.3047L51.6172 95.4902C51.9622 95.7376 52.3854 95.9362 52.8867 96.0859C53.3945 96.2357 53.9447 96.3105 54.5371 96.3105C55.1165 96.3105 55.6016 96.2292 55.9922 96.0664C56.3893 95.8971 56.6921 95.6628 56.9004 95.3633C57.1087 95.0638 57.2129 94.709 57.2129 94.2988C57.2129 93.9212 57.1217 93.5859 56.9395 93.293C56.7572 93 56.4544 92.7396 56.0312 92.5117C55.6081 92.2773 55.0352 92.0625 54.3125 91.8672C53.2513 91.5807 52.3626 91.2422 51.6465 90.8516C50.9368 90.4609 50.3997 89.9922 50.0352 89.4453C49.6771 88.8984 49.498 88.2539 49.498 87.5117C49.498 86.75 49.7031 86.0762 50.1133 85.4902C50.5299 84.9043 51.1061 84.4421 51.8418 84.1035C52.5775 83.765 53.4271 83.5924 54.3906 83.5859C55.4453 83.5729 56.3763 83.7096 57.1836 83.9961C57.9974 84.2826 58.6842 84.6569 59.2441 85.1191V88.1758H57.3789L57.0273 86.1836C56.7604 85.9948 56.4121 85.8353 55.9824 85.7051C55.5592 85.5684 55.0579 85.5 54.4785 85.5C53.9837 85.5 53.5475 85.5814 53.1699 85.7441C52.7923 85.9069 52.4961 86.138 52.2812 86.4375C52.0664 86.7305 51.959 87.082 51.959 87.4922C51.959 87.8503 52.0534 88.1628 52.2422 88.4297C52.431 88.6966 52.7467 88.9408 53.1895 89.1621C53.6322 89.377 54.2311 89.5951 54.9863 89.8164C56.5293 90.2266 57.6979 90.793 58.4922 91.5156C59.2865 92.2383 59.6836 93.1595 59.6836 94.2793C59.6836 95.0671 59.4688 95.7572 59.0391 96.3496C58.6159 96.9355 58.0169 97.3913 57.2422 97.7168C56.474 98.0423 55.5723 98.2051 54.5371 98.2051ZM67.1488 98.2051C66.1788 98.2051 65.2771 98.0846 64.4438 97.8438C63.6104 97.6029 62.7999 97.2025 62.0121 96.6426V93.3711H63.9164L64.2289 95.4902C64.574 95.7376 64.9971 95.9362 65.4984 96.0859C66.0063 96.2357 66.5564 96.3105 67.1488 96.3105C67.7283 96.3105 68.2133 96.2292 68.6039 96.0664C69.001 95.8971 69.3038 95.6628 69.5121 95.3633C69.7204 95.0638 69.8246 94.709 69.8246 94.2988C69.8246 93.9212 69.7335 93.5859 69.5512 93.293C69.3689 93 69.0661 92.7396 68.643 92.5117C68.2198 92.2773 67.6469 92.0625 66.9242 91.8672C65.863 91.5807 64.9744 91.2422 64.2582 90.8516C63.5486 90.4609 63.0115 89.9922 62.6469 89.4453C62.2888 88.8984 62.1098 88.2539 62.1098 87.5117C62.1098 86.75 62.3148 86.0762 62.725 85.4902C63.1417 84.9043 63.7178 84.4421 64.4535 84.1035C65.1892 83.765 66.0388 83.5924 67.0023 83.5859C68.057 83.5729 68.988 83.7096 69.7953 83.9961C70.6091 84.2826 71.296 84.6569 71.8559 85.1191V88.1758H69.9906L69.6391 86.1836C69.3721 85.9948 69.0238 85.8353 68.5941 85.7051C68.171 85.5684 67.6697 85.5 67.0902 85.5C66.5954 85.5 66.1592 85.5814 65.7816 85.7441C65.404 85.9069 65.1078 86.138 64.893 86.4375C64.6781 86.7305 64.5707 87.082 64.5707 87.4922C64.5707 87.8503 64.6651 88.1628 64.8539 88.4297C65.0427 88.6966 65.3585 88.9408 65.8012 89.1621C66.2439 89.377 66.8428 89.5951 67.598 89.8164C69.141 90.2266 70.3096 90.793 71.1039 91.5156C71.8982 92.2383 72.2953 93.1595 72.2953 94.2793C72.2953 95.0671 72.0805 95.7572 71.6508 96.3496C71.2276 96.9355 70.6286 97.3913 69.8539 97.7168C69.0857 98.0423 68.184 98.2051 67.1488 98.2051Z" fill="white"/>
<path d="M37.9309 175.205C37.0259 175.205 36.2219 175.042 35.5187 174.717C34.8221 174.391 34.2655 173.896 33.8488 173.232C33.4387 172.562 33.2141 171.722 33.175 170.713L33.1945 170.654H35.5285C35.5676 171.598 35.7792 172.272 36.1633 172.676C36.5474 173.073 37.078 173.271 37.7551 173.271C38.2043 173.271 38.5884 173.174 38.9074 172.979C39.2264 172.783 39.4706 172.503 39.6398 172.139C39.8091 171.774 39.8937 171.338 39.8937 170.83V162.588L37.9895 162.305V160.781H43.9074V162.295L42.3449 162.588V170.83C42.3449 171.715 42.1757 172.487 41.8371 173.145C41.4986 173.802 41.0005 174.31 40.343 174.668C39.6919 175.026 38.8879 175.205 37.9309 175.205ZM49.0875 175.205C48.0133 175.205 47.1767 174.928 46.5777 174.375C45.9788 173.822 45.6793 173.06 45.6793 172.09C45.6793 171.426 45.8616 170.843 46.2262 170.342C46.5908 169.84 47.1246 169.45 47.8277 169.17C48.5309 168.883 49.3837 168.74 50.3863 168.74H51.9977V167.852C51.9977 167.292 51.8284 166.846 51.4898 166.514C51.1578 166.182 50.6728 166.016 50.0348 166.016C49.6702 166.016 49.3479 166.061 49.068 166.152C48.788 166.237 48.5374 166.361 48.316 166.523L48.0914 167.949H46.2848L46.2652 165.342C46.7861 165.003 47.3655 164.736 48.0035 164.541C48.6415 164.339 49.3512 164.238 50.1324 164.238C51.4736 164.238 52.5283 164.554 53.2965 165.186C54.0712 165.811 54.4586 166.709 54.4586 167.881V172.539C54.4586 172.682 54.4586 172.822 54.4586 172.959C54.4651 173.096 54.4749 173.229 54.4879 173.359L55.5621 173.496V175H52.3492C52.2841 174.772 52.2223 174.551 52.1637 174.336C52.1116 174.121 52.0725 173.906 52.0465 173.691C51.6949 174.134 51.2685 174.499 50.7672 174.785C50.2724 175.065 49.7125 175.205 49.0875 175.205ZM49.6441 173.301C50.1389 173.301 50.6012 173.187 51.0309 172.959C51.4605 172.725 51.7828 172.432 51.9977 172.08V170.312H50.357C49.6214 170.312 49.0647 170.485 48.6871 170.83C48.316 171.169 48.1305 171.566 48.1305 172.021C48.1305 172.432 48.2607 172.747 48.5211 172.969C48.7815 173.19 49.1559 173.301 49.6441 173.301ZM61.1621 175L57.7344 166.113L56.6113 165.947V164.434H61.4453V165.947L60.2246 166.143L62.1289 171.445L62.3828 172.285H62.4414L62.7344 171.445L64.6582 166.143L63.3203 165.947V164.434H68.1445V165.947L66.9922 166.123L63.5547 175H61.1621ZM72.9828 175.205C71.9086 175.205 71.072 174.928 70.473 174.375C69.8741 173.822 69.5746 173.06 69.5746 172.09C69.5746 171.426 69.7569 170.843 70.1215 170.342C70.4861 169.84 71.0199 169.45 71.723 169.17C72.4262 168.883 73.279 168.74 74.2816 168.74H75.893V167.852C75.893 167.292 75.7237 166.846 75.3852 166.514C75.0531 166.182 74.5681 166.016 73.9301 166.016C73.5655 166.016 73.2432 166.061 72.9633 166.152C72.6833 166.237 72.4327 166.361 72.2113 166.523L71.9867 167.949H70.1801L70.1605 165.342C70.6814 165.003 71.2608 164.736 71.8988 164.541C72.5368 164.339 73.2465 164.238 74.0277 164.238C75.3689 164.238 76.4236 164.554 77.1918 165.186C77.9665 165.811 78.3539 166.709 78.3539 167.881V172.539C78.3539 172.682 78.3539 172.822 78.3539 172.959C78.3604 173.096 78.3702 173.229 78.3832 173.359L79.4574 173.496V175H76.2445C76.1794 174.772 76.1176 174.551 76.059 174.336C76.0069 174.121 75.9678 173.906 75.9418 173.691C75.5902 174.134 75.1638 174.499 74.6625 174.785C74.1677 175.065 73.6078 175.205 72.9828 175.205ZM73.5395 173.301C74.0342 173.301 74.4965 173.187 74.9262 172.959C75.3559 172.725 75.6781 172.432 75.893 172.08V170.312H74.2523C73.5167 170.312 72.96 170.485 72.5824 170.83C72.2113 171.169 72.0258 171.566 72.0258 172.021C72.0258 172.432 72.156 172.747 72.4164 172.969C72.6768 173.19 73.0512 173.301 73.5395 173.301ZM86.7664 175.205C85.7964 175.205 84.8947 175.085 84.0613 174.844C83.228 174.603 82.4174 174.202 81.6297 173.643V170.371H83.534L83.8465 172.49C84.1915 172.738 84.6147 172.936 85.116 173.086C85.6238 173.236 86.174 173.311 86.7664 173.311C87.3458 173.311 87.8309 173.229 88.2215 173.066C88.6186 172.897 88.9214 172.663 89.1297 172.363C89.338 172.064 89.4422 171.709 89.4422 171.299C89.4422 170.921 89.351 170.586 89.1687 170.293C88.9865 170 88.6837 169.74 88.2605 169.512C87.8374 169.277 87.2645 169.062 86.5418 168.867C85.4806 168.581 84.5919 168.242 83.8758 167.852C83.1661 167.461 82.629 166.992 82.2645 166.445C81.9064 165.898 81.7273 165.254 81.7273 164.512C81.7273 163.75 81.9324 163.076 82.3426 162.49C82.7592 161.904 83.3354 161.442 84.0711 161.104C84.8068 160.765 85.6564 160.592 86.6199 160.586C87.6746 160.573 88.6056 160.71 89.4129 160.996C90.2267 161.283 90.9135 161.657 91.4734 162.119V165.176H89.6082L89.2566 163.184C88.9897 162.995 88.6414 162.835 88.2117 162.705C87.7885 162.568 87.2872 162.5 86.7078 162.5C86.213 162.5 85.7768 162.581 85.3992 162.744C85.0216 162.907 84.7254 163.138 84.5105 163.438C84.2957 163.73 84.1883 164.082 84.1883 164.492C84.1883 164.85 84.2827 165.163 84.4715 165.43C84.6603 165.697 84.976 165.941 85.4187 166.162C85.8615 166.377 86.4604 166.595 87.2156 166.816C88.7586 167.227 89.9272 167.793 90.7215 168.516C91.5158 169.238 91.9129 170.16 91.9129 171.279C91.9129 172.067 91.698 172.757 91.2684 173.35C90.8452 173.936 90.2462 174.391 89.4715 174.717C88.7033 175.042 87.8016 175.205 86.7664 175.205ZM98.7629 175.205C97.7733 175.205 96.9139 174.98 96.1848 174.531C95.4621 174.076 94.9022 173.451 94.5051 172.656C94.1145 171.855 93.9191 170.934 93.9191 169.893V169.551C93.9191 168.529 94.1145 167.617 94.5051 166.816C94.8957 166.016 95.4523 165.387 96.175 164.932C96.9042 164.469 97.7635 164.238 98.7531 164.238C99.6581 164.238 100.446 164.385 101.116 164.678C101.787 164.964 102.337 165.322 102.767 165.752L102.777 168.574H100.902L100.54 166.709C100.358 166.52 100.127 166.37 99.8469 166.26C99.5669 166.143 99.2609 166.084 98.9289 166.084C98.3885 166.084 97.9263 166.23 97.5422 166.523C97.1646 166.816 96.8749 167.223 96.673 167.744C96.4777 168.258 96.3801 168.861 96.3801 169.551V169.893C96.3801 170.635 96.481 171.26 96.6828 171.768C96.8846 172.275 97.1646 172.66 97.5227 172.92C97.8872 173.18 98.3039 173.311 98.7727 173.311C99.3391 173.311 99.798 173.158 100.15 172.852C100.508 172.546 100.742 172.122 100.853 171.582H102.982L103.011 171.641C102.933 172.331 102.728 172.946 102.396 173.486C102.07 174.02 101.608 174.44 101.009 174.746C100.417 175.052 99.6678 175.205 98.7629 175.205ZM105.095 175V173.496L106.56 173.203V166.24L105.017 165.947V164.434H108.826L108.953 165.762L108.972 165.977C109.252 165.417 109.594 164.987 109.998 164.688C110.408 164.388 110.886 164.238 111.433 164.238C111.615 164.238 111.808 164.255 112.009 164.287C112.218 164.32 112.387 164.355 112.517 164.395L112.234 166.67L110.857 166.592C110.408 166.566 110.037 166.654 109.744 166.855C109.457 167.057 109.216 167.337 109.021 167.695V173.203L110.486 173.496V175H105.095ZM114.123 175V173.496L115.588 173.203V166.24L114.035 165.947V164.434H118.049V173.203L119.504 173.496V175H114.123ZM115.49 162.041V159.766H118.049V162.041H115.49ZM121.061 179.062V177.549L122.487 177.256V166.24L120.934 165.947V164.434H124.694L124.85 165.684C125.176 165.221 125.573 164.867 126.041 164.619C126.51 164.365 127.064 164.238 127.702 164.238C128.561 164.238 129.297 164.473 129.909 164.941C130.521 165.41 130.986 166.064 131.305 166.904C131.631 167.744 131.793 168.727 131.793 169.854V170.059C131.793 171.087 131.631 171.989 131.305 172.764C130.98 173.532 130.511 174.131 129.899 174.561C129.293 174.99 128.561 175.205 127.702 175.205C127.096 175.205 126.566 175.101 126.11 174.893C125.654 174.678 125.263 174.365 124.938 173.955V177.256L126.442 177.549V179.062H121.061ZM126.959 173.311C127.767 173.311 128.362 173.014 128.746 172.422C129.137 171.823 129.332 171.035 129.332 170.059V169.854C129.332 169.124 129.245 168.486 129.069 167.939C128.899 167.386 128.636 166.956 128.278 166.65C127.926 166.338 127.48 166.182 126.94 166.182C126.484 166.182 126.087 166.286 125.748 166.494C125.416 166.696 125.146 166.982 124.938 167.354V172.197C125.146 172.555 125.416 172.832 125.748 173.027C126.08 173.216 126.484 173.311 126.959 173.311ZM137.735 175.186C136.837 175.186 136.137 174.935 135.636 174.434C135.134 173.926 134.884 173.118 134.884 172.012V166.191H133.341V164.434H134.884V161.865H137.335V164.434H139.425V166.191H137.335V172.012C137.335 172.461 137.426 172.79 137.608 172.998C137.797 173.2 138.051 173.301 138.37 173.301C138.552 173.301 138.754 173.285 138.975 173.252C139.203 173.219 139.386 173.187 139.522 173.154L139.776 174.883C139.49 174.967 139.161 175.039 138.79 175.098C138.425 175.156 138.074 175.186 137.735 175.186Z" fill="white"/>
<path d="M33.4488 252V250.496L35.0016 250.203V239.588L33.4488 239.295V237.781H35.0016H40.1188C41.1799 237.781 42.0882 237.967 42.8434 238.338C43.6051 238.709 44.1878 239.227 44.5914 239.891C44.9951 240.548 45.1969 241.32 45.1969 242.205C45.1969 243.09 44.9951 243.865 44.5914 244.529C44.1878 245.187 43.6051 245.698 42.8434 246.062C42.0882 246.427 41.1799 246.609 40.1188 246.609H37.4625V250.203L39.0152 250.496V252H33.4488ZM37.4625 244.705H40.1188C40.9911 244.705 41.6454 244.471 42.0816 244.002C42.5178 243.533 42.7359 242.941 42.7359 242.225C42.7359 241.495 42.5178 240.89 42.0816 240.408C41.6454 239.926 40.9911 239.686 40.1188 239.686H37.4625V244.705ZM46.8809 252V250.496L48.4336 250.203V239.588L46.8809 239.295V237.781H52.4473V239.295L50.8945 239.588V244.021H57.1152V239.588L55.5625 239.295V237.781H57.1152H59.5664H61.1191V239.295L59.5664 239.588V250.203L61.1191 250.496V252H55.5625V250.496L57.1152 250.203V245.936H50.8945V250.203L52.4473 250.496V252H46.8809ZM63.0082 252V250.496L64.5609 250.203V239.588L63.0082 239.295V237.781H64.5609H69.6781C70.7393 237.781 71.6475 237.967 72.4027 238.338C73.1645 238.709 73.7471 239.227 74.1508 239.891C74.5544 240.548 74.7563 241.32 74.7563 242.205C74.7563 243.09 74.5544 243.865 74.1508 244.529C73.7471 245.187 73.1645 245.698 72.4027 246.062C71.6475 246.427 70.7393 246.609 69.6781 246.609H67.0219V250.203L68.5746 250.496V252H63.0082ZM67.0219 244.705H69.6781C70.5505 244.705 71.2048 244.471 71.641 244.002C72.0772 243.533 72.2953 242.941 72.2953 242.225C72.2953 241.495 72.0772 240.89 71.641 240.408C71.2048 239.926 70.5505 239.686 69.6781 239.686H67.0219V244.705Z" fill="white"/>
<path d="M34.6887 329V327.496L36.2316 327.203V316.588L34.6887 316.295V314.781H36.2316H39.757L43.927 325.064H43.9855L48.0285 314.781H53.1555V316.295L51.6027 316.588V327.203L53.1555 327.496V329H47.5988V327.496L49.2297 327.203V323.893L49.2492 317.672L49.2004 317.662L44.7961 328.678H43.009L38.4777 317.721L38.4289 317.73L38.5559 323.727V327.203L40.2453 327.496V329H34.6887ZM57.7496 333.268C57.5478 333.268 57.3134 333.248 57.0465 333.209C56.7861 333.17 56.5582 333.121 56.3629 333.062L56.6363 331.217C56.7535 331.236 56.8935 331.253 57.0563 331.266C57.2255 331.279 57.359 331.285 57.4566 331.285C57.8668 331.285 58.2119 331.155 58.4918 330.895C58.7717 330.641 58.9996 330.286 59.1754 329.83L59.4977 328.98L55.8844 320.123L54.6539 319.947V318.434H59.7711V319.947L58.4723 320.143L60.3082 325.064L60.6305 325.982H60.6891L62.857 320.133L61.5582 319.947V318.434H66.4117V319.947L65.2691 320.113L61.1773 330.592C60.982 331.087 60.7379 331.536 60.4449 331.939C60.1585 332.35 59.7939 332.672 59.3512 332.906C58.915 333.147 58.3811 333.268 57.7496 333.268ZM73.3594 329.205C72.3893 329.205 71.4876 329.085 70.6543 328.844C69.821 328.603 69.0104 328.202 68.2227 327.643V324.371H70.127L70.4395 326.49C70.7845 326.738 71.2077 326.936 71.709 327.086C72.2168 327.236 72.7669 327.311 73.3594 327.311C73.9388 327.311 74.4238 327.229 74.8145 327.066C75.2116 326.897 75.5143 326.663 75.7227 326.363C75.931 326.064 76.0352 325.709 76.0352 325.299C76.0352 324.921 75.944 324.586 75.7617 324.293C75.5794 324 75.2767 323.74 74.8535 323.512C74.4303 323.277 73.8574 323.062 73.1348 322.867C72.0736 322.581 71.1849 322.242 70.4688 321.852C69.7591 321.461 69.222 320.992 68.8574 320.445C68.4993 319.898 68.3203 319.254 68.3203 318.512C68.3203 317.75 68.5254 317.076 68.9355 316.49C69.3522 315.904 69.9284 315.442 70.6641 315.104C71.3997 314.765 72.2493 314.592 73.2129 314.586C74.2676 314.573 75.1986 314.71 76.0059 314.996C76.8197 315.283 77.5065 315.657 78.0664 316.119V319.176H76.2012L75.8496 317.184C75.5827 316.995 75.2344 316.835 74.8047 316.705C74.3815 316.568 73.8802 316.5 73.3008 316.5C72.806 316.5 72.3698 316.581 71.9922 316.744C71.6146 316.907 71.3184 317.138 71.1035 317.438C70.8887 317.73 70.7812 318.082 70.7812 318.492C70.7812 318.85 70.8757 319.163 71.0645 319.43C71.2533 319.697 71.569 319.941 72.0117 320.162C72.4544 320.377 73.0534 320.595 73.8086 320.816C75.3516 321.227 76.5202 321.793 77.3145 322.516C78.1087 323.238 78.5059 324.16 78.5059 325.279C78.5059 326.067 78.291 326.757 77.8613 327.35C77.4382 327.936 76.8392 328.391 76.0645 328.717C75.2962 329.042 74.3945 329.205 73.3594 329.205ZM92.2016 331.598L88.432 328.961C88.1521 329.039 87.8624 329.098 87.5629 329.137C87.2699 329.182 86.977 329.205 86.684 329.205C85.74 329.205 84.8871 329.029 84.1254 328.678C83.3637 328.32 82.7094 327.818 82.1625 327.174C81.6221 326.529 81.2055 325.768 80.9125 324.889C80.6195 324.01 80.473 323.046 80.473 321.998V321.783C80.473 320.742 80.6195 319.781 80.9125 318.902C81.2055 318.023 81.6221 317.262 82.1625 316.617C82.7029 315.966 83.3539 315.465 84.1156 315.113C84.8773 314.755 85.7302 314.576 86.6742 314.576C87.6378 314.576 88.5036 314.755 89.2719 315.113C90.0401 315.465 90.6944 315.966 91.2348 316.617C91.7751 317.262 92.1885 318.023 92.475 318.902C92.7615 319.781 92.9047 320.742 92.9047 321.783V321.998C92.9047 323.255 92.7094 324.397 92.3187 325.426C91.9346 326.448 91.3357 327.281 90.5219 327.926L93.4711 329.85L92.2016 331.598ZM86.684 327.252C87.5368 327.252 88.24 327.034 88.7934 326.598C89.3533 326.155 89.7699 325.54 90.0434 324.752C90.3168 323.964 90.4535 323.046 90.4535 321.998V321.764C90.4535 320.729 90.3168 319.82 90.0434 319.039C89.7699 318.258 89.3533 317.646 88.7934 317.203C88.2335 316.76 87.5271 316.539 86.6742 316.539C85.8539 316.539 85.1671 316.76 84.6137 317.203C84.0603 317.646 83.6404 318.258 83.3539 319.039C83.074 319.82 82.934 320.729 82.934 321.764V321.998C82.934 323.04 83.074 323.958 83.3539 324.752C83.6339 325.54 84.0538 326.155 84.6137 326.598C85.1736 327.034 85.8637 327.252 86.684 327.252ZM94.9012 329V327.496L96.4539 327.203V316.588L94.9012 316.295V314.781H96.4539H98.9148H100.585V316.295L98.9148 316.588V327.115H103.358L103.524 324.967H105.409V329H94.9012Z" fill="white"/>
<path d="M562.423 21.2051C561.929 21.2051 561.421 21.1562 560.9 21.0586C560.386 20.9674 559.923 20.8242 559.513 20.6289L559.806 19.1738C560.203 19.3626 560.607 19.4993 561.017 19.584C561.434 19.6621 561.903 19.7012 562.423 19.7012C563.348 19.7012 564.077 19.3496 564.611 18.6465C565.151 17.9368 565.431 16.7975 565.451 15.2285L565.412 15.1797C565.151 15.6159 564.787 15.9512 564.318 16.1855C563.849 16.4199 563.322 16.5371 562.736 16.5371C561.811 16.5371 561.014 16.3451 560.343 15.9609C559.673 15.5768 559.155 15.0202 558.791 14.291C558.433 13.5618 558.254 12.6797 558.254 11.6445C558.254 10.6549 558.449 9.7793 558.839 9.01758C559.237 8.25586 559.767 7.66016 560.431 7.23047C561.102 6.79427 561.844 6.57617 562.658 6.57617C563.647 6.57617 564.5 6.78451 565.216 7.20117C565.933 7.61133 566.483 8.22656 566.867 9.04688C567.257 9.86068 567.453 10.873 567.453 12.084V14.6523C567.453 16.1302 567.244 17.3542 566.828 18.3242C566.411 19.2943 565.825 20.0169 565.07 20.4922C564.321 20.9674 563.439 21.2051 562.423 21.2051ZM562.736 15.0234C563.446 15.0234 564.035 14.8704 564.504 14.5645C564.979 14.2585 565.321 13.8678 565.529 13.3926V11.8887C565.529 10.6322 565.288 9.6849 564.806 9.04688C564.331 8.40885 563.634 8.08984 562.716 8.08984C562.241 8.08984 561.811 8.24284 561.427 8.54883C561.043 8.84831 560.737 9.26497 560.509 9.79883C560.288 10.3327 560.177 10.9479 560.177 11.6445C560.177 12.3281 560.278 12.9238 560.48 13.4316C560.688 13.9329 560.985 14.3236 561.369 14.6035C561.753 14.8835 562.209 15.0234 562.736 15.0234ZM575.016 21.2051C573.622 21.2051 572.519 20.7201 571.705 19.75C570.891 18.7799 570.484 17.39 570.484 15.5801V12.2109C570.484 10.401 570.888 9.01107 571.695 8.04102C572.503 7.06445 573.603 6.57617 574.996 6.57617C576.396 6.57617 577.503 7.06445 578.316 8.04102C579.13 9.01107 579.537 10.401 579.537 12.2109V15.5801C579.537 17.3965 579.133 18.7897 578.326 19.7598C577.519 20.7233 576.415 21.2051 575.016 21.2051ZM575.016 19.7012C575.868 19.7012 576.513 19.3887 576.949 18.7637C577.392 18.1387 577.613 17.2077 577.613 15.9707V11.8008C577.613 10.5703 577.389 9.64583 576.939 9.02734C576.497 8.40234 575.849 8.08984 574.996 8.08984C574.156 8.08984 573.515 8.40234 573.072 9.02734C572.63 9.64583 572.408 10.5703 572.408 11.8008V15.9707C572.408 17.2012 572.633 18.1322 573.082 18.7637C573.531 19.3887 574.176 19.7012 575.016 19.7012ZM585.43 19.9258L584.366 19.2715L591.309 8.1582L592.373 8.8125L585.43 19.9258ZM591.895 21.2051C591.296 21.2051 590.775 21.0781 590.332 20.8242C589.89 20.5638 589.548 20.2122 589.307 19.7695C589.066 19.3268 588.946 18.8288 588.946 18.2754V17.5137C588.946 16.9668 589.066 16.472 589.307 16.0293C589.548 15.5866 589.886 15.235 590.323 14.9746C590.765 14.7142 591.283 14.584 591.875 14.584C592.468 14.584 592.985 14.7142 593.428 14.9746C593.871 15.2285 594.213 15.5768 594.454 16.0195C594.701 16.4622 594.825 16.9603 594.825 17.5137V18.2754C594.825 18.8288 594.704 19.3268 594.463 19.7695C594.222 20.2122 593.881 20.5638 593.438 20.8242C593.002 21.0781 592.487 21.2051 591.895 21.2051ZM591.895 20.0137C592.377 20.0137 592.748 19.8477 593.008 19.5156C593.269 19.1771 593.399 18.7637 593.399 18.2754V17.5137C593.399 17.0319 593.265 16.6217 592.998 16.2832C592.732 15.9447 592.357 15.7754 591.875 15.7754C591.394 15.7754 591.023 15.9447 590.762 16.2832C590.502 16.6217 590.371 17.0319 590.371 17.5137V18.2754C590.371 18.7637 590.502 19.1771 590.762 19.5156C591.029 19.8477 591.407 20.0137 591.895 20.0137ZM585.01 13.1875C584.418 13.1875 583.9 13.0605 583.457 12.8066C583.015 12.5462 582.67 12.1979 582.422 11.7617C582.181 11.319 582.061 10.821 582.061 10.2676V9.51562C582.061 8.96224 582.181 8.46419 582.422 8.02148C582.663 7.57878 583.002 7.22721 583.438 6.9668C583.881 6.70638 584.398 6.57617 584.991 6.57617C585.59 6.57617 586.11 6.70638 586.553 6.9668C586.996 7.2207 587.338 7.57227 587.579 8.02148C587.819 8.46419 587.94 8.96224 587.94 9.51562V10.2676C587.94 10.821 587.819 11.319 587.579 11.7617C587.338 12.1979 586.996 12.5462 586.553 12.8066C586.117 13.0605 585.603 13.1875 585.01 13.1875ZM585.01 11.9961C585.485 11.9961 585.853 11.8301 586.114 11.498C586.381 11.166 586.514 10.7559 586.514 10.2676V9.51562C586.514 9.03385 586.381 8.6237 586.114 8.28516C585.847 7.9401 585.472 7.76758 584.991 7.76758C584.509 7.76758 584.138 7.9401 583.877 8.28516C583.617 8.6237 583.487 9.03385 583.487 9.51562V10.2676C583.487 10.7493 583.617 11.1595 583.877 11.498C584.144 11.8301 584.522 11.9961 585.01 11.9961Z" fill="white"/>
<path d="M563.068 98.2051C562.137 98.2051 561.323 98.0521 560.627 97.7461C559.936 97.4336 559.399 96.9779 559.015 96.3789C558.631 95.7734 558.439 95.0312 558.439 94.1523C558.439 93.3516 558.68 92.6452 559.162 92.0332C559.643 91.4212 560.295 90.972 561.115 90.6855C560.405 90.4121 559.849 89.9987 559.445 89.4453C559.041 88.8854 558.839 88.2344 558.839 87.4922C558.839 86.6589 559.015 85.9525 559.367 85.373C559.718 84.7871 560.21 84.3411 560.841 84.0352C561.473 83.7292 562.209 83.5762 563.048 83.5762C563.882 83.5762 564.617 83.7292 565.255 84.0352C565.893 84.3411 566.392 84.7871 566.75 85.373C567.114 85.9525 567.296 86.6589 567.296 87.4922C567.296 88.2344 567.088 88.8854 566.671 89.4453C566.255 89.9987 565.692 90.4121 564.982 90.6855C565.802 90.972 566.457 91.4212 566.945 92.0332C567.44 92.6452 567.687 93.3516 567.687 94.1523C567.687 95.0312 567.492 95.7734 567.101 96.3789C566.711 96.9779 566.167 97.4336 565.47 97.7461C564.78 98.0521 563.979 98.2051 563.068 98.2051ZM563.068 96.7012C563.602 96.7012 564.071 96.597 564.474 96.3887C564.884 96.1803 565.203 95.8841 565.431 95.5C565.659 95.1094 565.773 94.6471 565.773 94.1133C565.773 93.5924 565.656 93.1302 565.421 92.7266C565.187 92.3229 564.865 92.0072 564.455 91.7793C564.045 91.5514 563.576 91.4375 563.048 91.4375C562.521 91.4375 562.056 91.5514 561.652 91.7793C561.248 92.0072 560.933 92.3229 560.705 92.7266C560.477 93.1237 560.363 93.5859 560.363 94.1133C560.363 94.9206 560.607 95.5553 561.095 96.0176C561.59 96.4733 562.248 96.7012 563.068 96.7012ZM563.068 89.9238C563.517 89.9238 563.914 89.8262 564.259 89.6309C564.611 89.429 564.884 89.1491 565.08 88.791C565.275 88.4329 565.373 88.013 565.373 87.5312C565.373 87.0625 565.272 86.6458 565.07 86.2812C564.868 85.9102 564.591 85.6204 564.24 85.4121C563.895 85.1973 563.498 85.0898 563.048 85.0898C562.365 85.0898 561.811 85.3145 561.388 85.7637C560.972 86.2064 560.763 86.7956 560.763 87.5312C560.763 88.2539 560.975 88.8333 561.398 89.2695C561.821 89.7057 562.378 89.9238 563.068 89.9238ZM574.908 98.2051C573.515 98.2051 572.411 97.7201 571.598 96.75C570.784 95.7799 570.377 94.39 570.377 92.5801V89.2109C570.377 87.401 570.781 86.0111 571.588 85.041C572.395 84.0645 573.495 83.5762 574.889 83.5762C576.288 83.5762 577.395 84.0645 578.209 85.041C579.023 86.0111 579.43 87.401 579.43 89.2109V92.5801C579.43 94.3965 579.026 95.7897 578.219 96.7598C577.411 97.7233 576.308 98.2051 574.908 98.2051ZM574.908 96.7012C575.761 96.7012 576.406 96.3887 576.842 95.7637C577.285 95.1387 577.506 94.2077 577.506 92.9707V88.8008C577.506 87.5703 577.281 86.6458 576.832 86.0273C576.389 85.4023 575.742 85.0898 574.889 85.0898C574.049 85.0898 573.408 85.4023 572.965 86.0273C572.522 86.6458 572.301 87.5703 572.301 88.8008V92.9707C572.301 94.2012 572.525 95.1322 572.975 95.7637C573.424 96.3887 574.068 96.7012 574.908 96.7012ZM585.323 96.9258L584.258 96.2715L591.202 85.1582L592.266 85.8125L585.323 96.9258ZM591.787 98.2051C591.189 98.2051 590.668 98.0781 590.225 97.8242C589.782 97.5638 589.44 97.2122 589.2 96.7695C588.959 96.3268 588.838 95.8288 588.838 95.2754V94.5137C588.838 93.9668 588.959 93.472 589.2 93.0293C589.44 92.5866 589.779 92.235 590.215 91.9746C590.658 91.7142 591.176 91.584 591.768 91.584C592.36 91.584 592.878 91.7142 593.321 91.9746C593.763 92.2285 594.105 92.5768 594.346 93.0195C594.593 93.4622 594.717 93.9603 594.717 94.5137V95.2754C594.717 95.8288 594.597 96.3268 594.356 96.7695C594.115 97.2122 593.773 97.5638 593.33 97.8242C592.894 98.0781 592.38 98.2051 591.787 98.2051ZM591.787 97.0137C592.269 97.0137 592.64 96.8477 592.901 96.5156C593.161 96.1771 593.291 95.7637 593.291 95.2754V94.5137C593.291 94.0319 593.158 93.6217 592.891 93.2832C592.624 92.9447 592.25 92.7754 591.768 92.7754C591.286 92.7754 590.915 92.9447 590.655 93.2832C590.394 93.6217 590.264 94.0319 590.264 94.5137V95.2754C590.264 95.7637 590.394 96.1771 590.655 96.5156C590.922 96.8477 591.299 97.0137 591.787 97.0137ZM584.903 90.1875C584.31 90.1875 583.793 90.0605 583.35 89.8066C582.907 89.5462 582.562 89.1979 582.315 88.7617C582.074 88.319 581.954 87.821 581.954 87.2676V86.5156C581.954 85.9622 582.074 85.4642 582.315 85.0215C582.556 84.5788 582.894 84.2272 583.33 83.9668C583.773 83.7064 584.291 83.5762 584.883 83.5762C585.482 83.5762 586.003 83.7064 586.446 83.9668C586.888 84.2207 587.23 84.5723 587.471 85.0215C587.712 85.4642 587.832 85.9622 587.832 86.5156V87.2676C587.832 87.821 587.712 88.319 587.471 88.7617C587.23 89.1979 586.888 89.5462 586.446 89.8066C586.01 90.0605 585.495 90.1875 584.903 90.1875ZM584.903 88.9961C585.378 88.9961 585.746 88.8301 586.006 88.498C586.273 88.166 586.407 87.7559 586.407 87.2676V86.5156C586.407 86.0339 586.273 85.6237 586.006 85.2852C585.739 84.9401 585.365 84.7676 584.883 84.7676C584.401 84.7676 584.03 84.9401 583.77 85.2852C583.51 85.6237 583.379 86.0339 583.379 86.5156V87.2676C583.379 87.7493 583.51 88.1595 583.77 88.498C584.037 88.8301 584.414 88.9961 584.903 88.9961Z" fill="white"/>
<path d="M562.677 175V173.77L564.269 173.496V171.719H557.882V170.635L564.152 160.781H566.183V170.215H568.146V171.719H566.183V173.496L567.775 173.77V175H562.677ZM559.933 170.215H564.269V163.525L564.211 163.506L564.015 164.023L559.933 170.215ZM575.182 175.205C573.788 175.205 572.685 174.72 571.871 173.75C571.057 172.78 570.65 171.39 570.65 169.58V166.211C570.65 164.401 571.054 163.011 571.861 162.041C572.669 161.064 573.769 160.576 575.162 160.576C576.562 160.576 577.669 161.064 578.482 162.041C579.296 163.011 579.703 164.401 579.703 166.211V169.58C579.703 171.396 579.299 172.79 578.492 173.76C577.685 174.723 576.581 175.205 575.182 175.205ZM575.182 173.701C576.035 173.701 576.679 173.389 577.115 172.764C577.558 172.139 577.779 171.208 577.779 169.971V165.801C577.779 164.57 577.555 163.646 577.105 163.027C576.663 162.402 576.015 162.09 575.162 162.09C574.322 162.09 573.681 162.402 573.238 163.027C572.796 163.646 572.574 164.57 572.574 165.801V169.971C572.574 171.201 572.799 172.132 573.248 172.764C573.697 173.389 574.342 173.701 575.182 173.701ZM585.596 173.926L584.532 173.271L591.475 162.158L592.539 162.812L585.596 173.926ZM592.061 175.205C591.462 175.205 590.941 175.078 590.498 174.824C590.056 174.564 589.714 174.212 589.473 173.77C589.232 173.327 589.112 172.829 589.112 172.275V171.514C589.112 170.967 589.232 170.472 589.473 170.029C589.714 169.587 590.052 169.235 590.489 168.975C590.931 168.714 591.449 168.584 592.041 168.584C592.634 168.584 593.151 168.714 593.594 168.975C594.037 169.229 594.379 169.577 594.62 170.02C594.867 170.462 594.991 170.96 594.991 171.514V172.275C594.991 172.829 594.87 173.327 594.629 173.77C594.388 174.212 594.047 174.564 593.604 174.824C593.168 175.078 592.653 175.205 592.061 175.205ZM592.061 174.014C592.543 174.014 592.914 173.848 593.174 173.516C593.435 173.177 593.565 172.764 593.565 172.275V171.514C593.565 171.032 593.431 170.622 593.164 170.283C592.898 169.945 592.523 169.775 592.041 169.775C591.56 169.775 591.189 169.945 590.928 170.283C590.668 170.622 590.537 171.032 590.537 171.514V172.275C590.537 172.764 590.668 173.177 590.928 173.516C591.195 173.848 591.573 174.014 592.061 174.014ZM585.176 167.188C584.584 167.188 584.066 167.061 583.623 166.807C583.181 166.546 582.836 166.198 582.588 165.762C582.347 165.319 582.227 164.821 582.227 164.268V163.516C582.227 162.962 582.347 162.464 582.588 162.021C582.829 161.579 583.168 161.227 583.604 160.967C584.047 160.706 584.564 160.576 585.157 160.576C585.756 160.576 586.276 160.706 586.719 160.967C587.162 161.221 587.504 161.572 587.745 162.021C587.985 162.464 588.106 162.962 588.106 163.516V164.268C588.106 164.821 587.985 165.319 587.745 165.762C587.504 166.198 587.162 166.546 586.719 166.807C586.283 167.061 585.769 167.188 585.176 167.188ZM585.176 165.996C585.651 165.996 586.019 165.83 586.28 165.498C586.547 165.166 586.68 164.756 586.68 164.268V163.516C586.68 163.034 586.547 162.624 586.28 162.285C586.013 161.94 585.638 161.768 585.157 161.768C584.675 161.768 584.304 161.94 584.043 162.285C583.783 162.624 583.653 163.034 583.653 163.516V164.268C583.653 164.749 583.783 165.16 584.043 165.498C584.31 165.83 584.688 165.996 585.176 165.996Z" fill="white"/>
<path d="M562.882 252.205C562.082 252.205 561.362 252.059 560.724 251.766C560.093 251.473 559.598 251.04 559.24 250.467C558.882 249.887 558.712 249.171 558.732 248.318L558.752 248.26H560.49C560.49 249.028 560.711 249.627 561.154 250.057C561.603 250.486 562.179 250.701 562.882 250.701C563.696 250.701 564.328 250.415 564.777 249.842C565.226 249.269 565.451 248.484 565.451 247.488C565.451 246.57 565.223 245.822 564.767 245.242C564.318 244.656 563.693 244.363 562.892 244.363C562.137 244.363 561.587 244.477 561.242 244.705C560.903 244.933 560.656 245.281 560.5 245.75L558.898 245.584L559.718 237.781H567.228V240.594H565.783L565.597 239.49H561.349L560.89 243.484C561.086 243.335 561.297 243.204 561.525 243.094C561.753 242.977 562 242.882 562.267 242.811C562.541 242.739 562.837 242.7 563.156 242.693C564.028 242.687 564.78 242.879 565.412 243.27C566.043 243.654 566.528 244.207 566.867 244.93C567.205 245.646 567.375 246.492 567.375 247.469C567.375 248.419 567.202 249.249 566.857 249.959C566.518 250.669 566.014 251.222 565.343 251.619C564.679 252.01 563.859 252.205 562.882 252.205ZM574.664 252.205C573.271 252.205 572.167 251.72 571.354 250.75C570.54 249.78 570.133 248.39 570.133 246.58V243.211C570.133 241.401 570.536 240.011 571.344 239.041C572.151 238.064 573.251 237.576 574.645 237.576C576.044 237.576 577.151 238.064 577.965 239.041C578.779 240.011 579.186 241.401 579.186 243.211V246.58C579.186 248.396 578.782 249.79 577.975 250.76C577.167 251.723 576.064 252.205 574.664 252.205ZM574.664 250.701C575.517 250.701 576.161 250.389 576.598 249.764C577.04 249.139 577.262 248.208 577.262 246.971V242.801C577.262 241.57 577.037 240.646 576.588 240.027C576.145 239.402 575.497 239.09 574.645 239.09C573.805 239.09 573.163 239.402 572.721 240.027C572.278 240.646 572.057 241.57 572.057 242.801V246.971C572.057 248.201 572.281 249.132 572.73 249.764C573.18 250.389 573.824 250.701 574.664 250.701ZM585.079 250.926L584.014 250.271L590.957 239.158L592.022 239.812L585.079 250.926ZM591.543 252.205C590.944 252.205 590.424 252.078 589.981 251.824C589.538 251.564 589.196 251.212 588.955 250.77C588.715 250.327 588.594 249.829 588.594 249.275V248.514C588.594 247.967 588.715 247.472 588.955 247.029C589.196 246.587 589.535 246.235 589.971 245.975C590.414 245.714 590.931 245.584 591.524 245.584C592.116 245.584 592.634 245.714 593.077 245.975C593.519 246.229 593.861 246.577 594.102 247.02C594.349 247.462 594.473 247.96 594.473 248.514V249.275C594.473 249.829 594.353 250.327 594.112 250.77C593.871 251.212 593.529 251.564 593.086 251.824C592.65 252.078 592.136 252.205 591.543 252.205ZM591.543 251.014C592.025 251.014 592.396 250.848 592.657 250.516C592.917 250.177 593.047 249.764 593.047 249.275V248.514C593.047 248.032 592.914 247.622 592.647 247.283C592.38 246.945 592.006 246.775 591.524 246.775C591.042 246.775 590.671 246.945 590.411 247.283C590.15 247.622 590.02 248.032 590.02 248.514V249.275C590.02 249.764 590.15 250.177 590.411 250.516C590.677 250.848 591.055 251.014 591.543 251.014ZM584.659 244.188C584.066 244.188 583.549 244.061 583.106 243.807C582.663 243.546 582.318 243.198 582.071 242.762C581.83 242.319 581.709 241.821 581.709 241.268V240.516C581.709 239.962 581.83 239.464 582.071 239.021C582.312 238.579 582.65 238.227 583.086 237.967C583.529 237.706 584.047 237.576 584.639 237.576C585.238 237.576 585.759 237.706 586.202 237.967C586.644 238.221 586.986 238.572 587.227 239.021C587.468 239.464 587.588 239.962 587.588 240.516V241.268C587.588 241.821 587.468 242.319 587.227 242.762C586.986 243.198 586.644 243.546 586.202 243.807C585.765 244.061 585.251 244.188 584.659 244.188ZM584.659 242.996C585.134 242.996 585.502 242.83 585.762 242.498C586.029 242.166 586.162 241.756 586.162 241.268V240.516C586.162 240.034 586.029 239.624 585.762 239.285C585.495 238.94 585.121 238.768 584.639 238.768C584.157 238.768 583.786 238.94 583.526 239.285C583.265 239.624 583.135 240.034 583.135 240.516V241.268C583.135 241.749 583.265 242.16 583.526 242.498C583.793 242.83 584.17 242.996 584.659 242.996Z" fill="white"/>
<path d="M562.882 329.205C562.082 329.205 561.362 329.059 560.724 328.766C560.093 328.473 559.598 328.04 559.24 327.467C558.882 326.887 558.712 326.171 558.732 325.318L558.752 325.26H560.49C560.49 326.028 560.711 326.627 561.154 327.057C561.603 327.486 562.179 327.701 562.882 327.701C563.696 327.701 564.328 327.415 564.777 326.842C565.226 326.269 565.451 325.484 565.451 324.488C565.451 323.57 565.223 322.822 564.767 322.242C564.318 321.656 563.693 321.363 562.892 321.363C562.137 321.363 561.587 321.477 561.242 321.705C560.903 321.933 560.656 322.281 560.5 322.75L558.898 322.584L559.718 314.781H567.228V317.594H565.783L565.597 316.49H561.349L560.89 320.484C561.086 320.335 561.297 320.204 561.525 320.094C561.753 319.977 562 319.882 562.267 319.811C562.541 319.739 562.837 319.7 563.156 319.693C564.028 319.687 564.78 319.879 565.412 320.27C566.043 320.654 566.528 321.207 566.867 321.93C567.205 322.646 567.375 323.492 567.375 324.469C567.375 325.419 567.202 326.249 566.857 326.959C566.518 327.669 566.014 328.222 565.343 328.619C564.679 329.01 563.859 329.205 562.882 329.205ZM574.664 329.205C573.271 329.205 572.167 328.72 571.354 327.75C570.54 326.78 570.133 325.39 570.133 323.58V320.211C570.133 318.401 570.536 317.011 571.344 316.041C572.151 315.064 573.251 314.576 574.645 314.576C576.044 314.576 577.151 315.064 577.965 316.041C578.779 317.011 579.186 318.401 579.186 320.211V323.58C579.186 325.396 578.782 326.79 577.975 327.76C577.167 328.723 576.064 329.205 574.664 329.205ZM574.664 327.701C575.517 327.701 576.161 327.389 576.598 326.764C577.04 326.139 577.262 325.208 577.262 323.971V319.801C577.262 318.57 577.037 317.646 576.588 317.027C576.145 316.402 575.497 316.09 574.645 316.09C573.805 316.09 573.163 316.402 572.721 317.027C572.278 317.646 572.057 318.57 572.057 319.801V323.971C572.057 325.201 572.281 326.132 572.73 326.764C573.18 327.389 573.824 327.701 574.664 327.701ZM585.079 327.926L584.014 327.271L590.957 316.158L592.022 316.812L585.079 327.926ZM591.543 329.205C590.944 329.205 590.424 329.078 589.981 328.824C589.538 328.564 589.196 328.212 588.955 327.77C588.715 327.327 588.594 326.829 588.594 326.275V325.514C588.594 324.967 588.715 324.472 588.955 324.029C589.196 323.587 589.535 323.235 589.971 322.975C590.414 322.714 590.931 322.584 591.524 322.584C592.116 322.584 592.634 322.714 593.077 322.975C593.519 323.229 593.861 323.577 594.102 324.02C594.349 324.462 594.473 324.96 594.473 325.514V326.275C594.473 326.829 594.353 327.327 594.112 327.77C593.871 328.212 593.529 328.564 593.086 328.824C592.65 329.078 592.136 329.205 591.543 329.205ZM591.543 328.014C592.025 328.014 592.396 327.848 592.657 327.516C592.917 327.177 593.047 326.764 593.047 326.275V325.514C593.047 325.032 592.914 324.622 592.647 324.283C592.38 323.945 592.006 323.775 591.524 323.775C591.042 323.775 590.671 323.945 590.411 324.283C590.15 324.622 590.02 325.032 590.02 325.514V326.275C590.02 326.764 590.15 327.177 590.411 327.516C590.677 327.848 591.055 328.014 591.543 328.014ZM584.659 321.188C584.066 321.188 583.549 321.061 583.106 320.807C582.663 320.546 582.318 320.198 582.071 319.762C581.83 319.319 581.709 318.821 581.709 318.268V317.516C581.709 316.962 581.83 316.464 582.071 316.021C582.312 315.579 582.65 315.227 583.086 314.967C583.529 314.706 584.047 314.576 584.639 314.576C585.238 314.576 585.759 314.706 586.202 314.967C586.644 315.221 586.986 315.572 587.227 316.021C587.468 316.464 587.588 316.962 587.588 317.516V318.268C587.588 318.821 587.468 319.319 587.227 319.762C586.986 320.198 586.644 320.546 586.202 320.807C585.765 321.061 585.251 321.188 584.659 321.188ZM584.659 319.996C585.134 319.996 585.502 319.83 585.762 319.498C586.029 319.166 586.162 318.756 586.162 318.268V317.516C586.162 317.034 586.029 316.624 585.762 316.285C585.495 315.94 585.121 315.768 584.639 315.768C584.157 315.768 583.786 315.94 583.526 316.285C583.265 316.624 583.135 317.034 583.135 317.516V318.268C583.135 318.749 583.265 319.16 583.526 319.498C583.793 319.83 584.17 319.996 584.659 319.996Z" fill="white"/>
<rect width="567" height="9" transform="translate(33 47)" fill="#BBBBBB"/>
<rect x="33" y="47" width="494" height="9" fill="#F4FA1A"/>
<rect width="567" height="9" transform="translate(33 124)" fill="#BBBBBB"/>
<rect width="567" height="9" transform="translate(33 124)" fill="#BBBBBB"/>
<rect x="33" y="124" width="443" height="9" fill="#F4FA1A"/>
<rect width="567" height="9" transform="translate(33 201)" fill="#BBBBBB"/>
<rect x="33" y="202" width="224" height="7" fill="#F4FA1A"/>
<rect width="567" height="9" transform="translate(33 278)" fill="#BBBBBB"/>
<rect x="33" y="278" width="283.5" height="9" fill="#F4FA1A"/>
<rect width="567" height="9" transform="translate(33 356)" fill="#BBBBBB"/>
<rect x="33" y="356" width="283.5" height="9" fill="#F4FA1A"/>
</g>
<defs>
<clipPath id="clip0_19_67">
<rect width="619" height="379" fill="white"/>
</clipPath>
</defs>
</svg>
